<svg width="91" height="90" viewBox="0 0 91 90" fill="none" xmlns="http://www.w3.org/2000/svg">
<path fill-rule="evenodd" clip-rule="evenodd" d="M41.0268 11.6262C43.8737 10.3726 47.1247 10.3726 49.9716 11.6262C51.9559 12.5 53.3884 14.1016 54.6334 15.8444C55.8676 17.5721 57.2255 19.8983 58.8776 22.7286L78.2563 55.9247C79.9085 58.7549 81.2666 61.0811 82.1623 63.0021C83.0659 64.9398 83.7521 66.9676 83.525 69.104C83.1993 72.1692 81.5738 74.9538 79.0526 76.7653C77.2954 78.028 75.1767 78.4542 73.0282 78.6491C70.8982 78.8424 68.1822 78.8423 64.8778 78.8423H26.1206C22.8162 78.8423 20.1002 78.8424 17.9702 78.6491C15.8217 78.4542 13.703 78.028 11.9458 76.7653C9.42465 74.9538 7.79914 72.1692 7.4734 69.104C7.24636 66.9676 7.93256 64.9398 8.83611 63.0021C9.73187 61.0811 11.0899 58.7549 12.7421 55.9247L32.1208 22.7286C33.7729 19.8983 35.1309 17.5721 36.3651 15.8444C37.61 14.1016 39.0425 12.5 41.0268 11.6262ZM45.4998 30.3735C47.3845 30.3735 48.9123 31.8846 48.9123 33.7485V48.7485C48.9123 50.6125 47.3845 52.1235 45.4998 52.1235C43.6152 52.1235 42.0873 50.6125 42.0873 48.7485V33.7485C42.0873 31.8846 43.6152 30.3735 45.4998 30.3735ZM49.291 61.8735C49.291 63.9446 47.5934 65.6235 45.4993 65.6235C43.4053 65.6235 41.7077 63.9446 41.7077 61.8735C41.7077 59.8025 43.4053 58.1235 45.4993 58.1235C47.5934 58.1235 49.291 59.8025 49.291 61.8735Z" fill="#FF5E5E"/>
</svg>
