<svg width="50" height="50" viewBox="0 0 50 50" fill="none" xmlns="http://www.w3.org/2000/svg">
<circle cx="10" cy="27" r="10" fill="#CC5153" fill-opacity="0.3"/>
<path d="M49.9414 39.2058C49.6617 37.5701 48.4631 36.33 46.9583 36.1206C32.8847 34.1644 24.6723 26.18 21.795 22.8379C20.9131 21.8141 20.4078 20.3747 20.4078 18.8882V0.899063C20.4078 0.402559 20.069 0 19.6502 0C19.2314 0 18.8926 0.402559 18.8926 0.899063V18.8882C18.8926 20.8554 19.5644 22.7637 20.7356 24.1233C24.4474 28.4346 32.7678 35.9586 46.7822 37.9064C47.6212 38.0232 48.3092 38.7045 48.4557 39.5632C48.5282 39.9859 48.4661 40.3222 48.2597 40.6212C47.849 41.2169 46.4899 42.216 41.996 42.216C37.9527 42.216 34.3948 41.7296 31.2548 41.3007C25.7511 40.5483 20.9982 39.8999 16.3038 42.2889C12.6926 44.1265 9.39655 44.1274 7.48994 42.2924C6.28916 41.1365 5.82157 39.3494 6.173 37.2602C6.96761 32.545 7.76443 24.8652 8.07073 21.7817C8.17283 20.7518 8.18763 19.707 8.11438 18.6766L7.20066 5.64944C7.16589 5.15513 6.80854 4.78023 6.38312 4.82808C5.96584 4.86934 5.65658 5.30395 5.69136 5.7987L6.60508 18.8263C6.66871 19.7373 6.65613 20.6613 6.56587 21.5714C6.26179 24.6329 5.47088 32.2561 4.68737 36.9081C4.22644 39.6435 4.89971 42.1151 6.53553 43.6889C7.75851 44.8662 9.39211 45.4567 11.2617 45.4567C12.9878 45.4567 14.9144 44.9527 16.9016 43.9413C21.2261 41.7406 25.5757 42.3354 31.0817 43.087C34.2616 43.5216 37.8662 44.0142 41.996 44.0142C45.955 44.0142 48.3869 43.2766 49.4323 41.7595C49.928 41.0413 50.1034 40.158 49.9414 39.2058Z" fill="#8C8C8C"/>
<path d="M9.86281 34.8405C10.124 37.0605 11.6784 38.8736 13.5584 39.1514C14.5986 39.3073 15.6292 39.0083 16.4971 38.3125L30.982 40.0505C31.053 40.0588 31.124 40.0632 31.1951 40.0632C31.7196 40.0632 32.2301 39.8323 32.6215 39.4122C33.0676 38.9341 33.3229 38.2511 33.3229 37.5377C33.3229 36.3375 32.6052 35.2962 31.6175 35.0622C28.9814 34.4371 22.1858 32.8233 17.8806 31.7706C17.5211 30.9374 16.9787 30.2482 16.3084 29.7732L14.8494 14.1717C14.8036 13.6791 14.4314 13.3218 14.0127 13.3776C13.5969 13.432 13.2972 13.8767 13.3431 14.3701L14.8465 30.4435C14.8761 30.7565 15.0411 31.0287 15.2823 31.1604C15.9045 31.5019 16.3891 32.1152 16.6451 32.8878C16.739 33.1701 16.9462 33.3778 17.197 33.4392C21.4748 34.488 28.6041 36.1816 31.3201 36.8252C31.6072 36.8932 31.8077 37.1865 31.8077 37.5377C31.8077 37.7467 31.7359 37.9385 31.6057 38.0781C31.4762 38.2168 31.3105 38.28 31.1344 38.2612L16.3624 36.4889C16.1693 36.4652 15.9725 36.5328 15.8186 36.6759C15.2216 37.2313 14.481 37.4745 13.7463 37.3674C12.5337 37.1878 11.5312 36.021 11.3632 34.592C11.2093 33.2816 11.6932 32.0384 12.6247 31.3465C12.8585 31.1731 12.9946 30.8619 12.9791 30.5344L12.2133 14.2209C12.1897 13.7252 11.8316 13.3468 11.415 13.3732C10.997 13.4008 10.6774 13.8253 10.7011 14.321L11.4431 30.138C10.2638 31.2434 9.65048 33.0327 9.86281 34.8405Z" fill="#8C8C8C"/>
</svg>
