<svg width="20" height="20" viewBox="0 0 20 20" fill="none" xmlns="http://www.w3.org/2000/svg">
<path d="M18.4099 9.92451C19.3862 10.9008 19.3862 12.4837 18.4099 13.46L13.4602 18.4098C12.4838 19.3861 10.9009 19.3861 9.92462 18.4098C8.94831 17.4335 8.94831 15.8506 9.92462 14.8743L10.9853 13.8136L5.32842 8.15674L4.26776 9.2174C3.29145 10.1937 1.70854 10.1937 0.732231 9.2174C-0.24408 8.24109 -0.24408 6.65818 0.732231 5.68187L5.68198 0.732122C6.65829 -0.244188 8.2412 -0.244188 9.21751 0.732122C10.1938 1.70843 10.1938 3.29135 9.21751 4.26766L8.15685 5.32832L13.8137 10.9852L14.8744 9.92451C15.8507 8.9482 17.4336 8.9482 18.4099 9.92451Z" fill="#17CA88"/>
</svg>
