<svg width="52" height="50" viewBox="0 0 52 50" fill="none" xmlns="http://www.w3.org/2000/svg">
<circle cx="41.1318" cy="35" r="10" fill="#CC5153" fill-opacity="0.3"/>
<path d="M0.785584 50C0.408991 50 0.0765454 49.6862 0.0112846 49.2426C-0.0616539 48.7465 0.226645 48.2763 0.654679 48.1918L11.3935 46.0769C11.4369 46.0689 11.4811 46.0645 11.5252 46.0645C11.6956 46.0645 28.7679 45.9729 43.8366 38.5472C44.5498 38.197 45.1088 37.5471 45.4105 36.7168C45.7741 35.7185 45.6036 34.481 44.9667 33.4862C44.7264 33.1111 44.4208 32.6275 44.0611 32.0585C41.1536 27.4598 34.345 16.6916 30.7518 13.6788C22.1136 6.43893 18.2578 3.13458 17.4731 2.45984L14.2919 1.84822C13.5061 1.69709 12.7371 2.21359 12.4657 3.07502L10.7018 8.66405C10.4787 9.37169 10.5117 10.1344 10.7947 10.8127C11.0795 11.4955 11.5805 12.004 12.2051 12.244L16.1288 13.7508C16.6505 13.9499 17.2075 13.9766 17.7426 13.8237L21.6629 12.6974C22.0813 12.5782 22.5101 12.8734 22.6153 13.3614C22.7197 13.8495 22.4629 14.3438 22.0414 14.4647L18.1204 15.591C17.2969 15.8257 16.4366 15.7875 15.6336 15.479L11.7099 13.9722C10.6783 13.5757 9.8503 12.7347 9.37889 11.6048C8.9094 10.4794 8.8545 9.21345 9.22457 8.03999L10.9885 2.45095C11.5194 0.767216 13.0162 -0.248003 14.5491 0.0524734L17.9181 0.699653C18.0421 0.723656 18.1591 0.78144 18.2597 0.867671C18.2954 0.898785 21.95 4.05468 31.6739 12.2049C35.4675 15.3848 42.1287 25.9201 45.3299 30.9829C45.6873 31.5483 45.9909 32.0292 46.2297 32.4017C47.1964 33.9112 47.4378 35.8349 46.8597 37.4236C46.3979 38.693 45.5426 39.6878 44.4512 40.223C29.5736 47.5544 12.8108 47.8718 11.5943 47.8842L0.918025 49.9876C0.873494 49.9956 0.829347 50 0.785584 50Z" fill="#8C8C8C"/>
<path d="M29.4241 33.4471C29.1708 33.4471 28.9224 33.3057 28.7708 33.0444C27.4348 30.7401 23.4102 20.0866 21.1299 13.9401C20.9587 13.4788 21.1429 12.9427 21.5422 12.7445C21.9399 12.548 22.4025 12.7596 22.5748 13.2218C24.3929 18.1228 28.7639 29.7667 30.076 32.0292C30.3182 32.447 30.2222 33.0124 29.8618 33.2924C29.727 33.3973 29.5746 33.4471 29.4241 33.4471Z" fill="#8C8C8C"/>
<path d="M8.84035 33.447C8.74706 33.447 8.65378 33.4275 8.56549 33.3892C5.19573 31.9331 1.35955 30.3996 0.773351 30.3534C0.350691 30.3196 0.00672867 29.9035 0.0209325 29.4128C0.0355203 28.9221 0.362592 28.5327 0.786403 28.5327C1.69046 28.5327 6.57733 30.5907 8.88373 31.5837C10.536 31.1001 19.8502 28.4767 28.0166 28.5736C28.4508 28.5781 28.7994 28.9897 28.7956 29.4919C28.7917 29.9924 28.4405 30.3942 28.0094 30.3942C28.007 30.3942 28.0047 30.3942 28.0021 30.3942C19.4207 30.2751 9.14247 33.3857 9.03959 33.4177C8.97394 33.4372 8.90714 33.447 8.84035 33.447Z" fill="#8C8C8C"/>
</svg>
