<svg width="55" height="55" viewBox="0 0 55 55" fill="none" xmlns="http://www.w3.org/2000/svg">
<path d="M51.4321 35.2537L53.4721 33.2137C54.5771 32.1087 54.5771 30.3237 53.4721 29.2187L53.4154 29.1621C52.3104 28.0571 50.5254 28.0571 49.4204 29.1621L41.3171 37.2654L17.0354 12.9837L25.1387 4.88042C26.2437 3.77542 26.2437 1.99042 25.1387 0.885417L25.0821 0.82875C23.9771 -0.27625 22.1921 -0.27625 21.0871 0.82875L19.0471 2.86875L17.0071 0.82875C15.9021 -0.27625 14.0887 -0.27625 12.9837 0.82875L8.93208 4.88042L6.89208 2.84042C5.78708 1.73542 3.94542 1.73542 2.84042 2.84042C1.73542 3.94542 1.73542 5.78708 2.84042 6.89208L4.88042 8.93208L0.82875 12.9837C-0.27625 14.0887 -0.27625 15.8737 0.82875 16.9787L2.86875 19.0187L0.82875 21.0871C-0.27625 22.1921 -0.27625 23.9771 0.82875 25.0821L0.885417 25.1387C1.99042 26.2437 3.77542 26.2437 4.88042 25.1387L12.9837 17.0354L37.2654 41.3171L29.1621 49.4204C28.0571 50.5254 28.0571 52.3104 29.1621 53.4154L29.2187 53.4721C30.3237 54.5771 32.1087 54.5771 33.2137 53.4721L35.2537 51.4321L37.2937 53.4721C38.3987 54.5771 40.1837 54.5771 41.2887 53.4721L45.3404 49.4204L47.3804 51.4604C48.4854 52.5654 50.3271 52.5654 51.4321 51.4604C52.5371 50.3554 52.5371 48.5137 51.4321 47.4087L49.3921 45.3688L53.4721 41.3171C54.5771 40.2121 54.5771 38.4271 53.4721 37.3221L51.4321 35.2537Z" fill="#6DDEB4"/>
</svg>
