<svg width="19" height="20" viewBox="0 0 19 20" fill="none" xmlns="http://www.w3.org/2000/svg">
<path d="M9.03863 0.0474641C9.27544 -0.0158214 9.52472 -0.0158214 9.76153 0.0474641C10.0423 0.122496 10.2751 0.304294 10.3977 0.400047L10.4327 0.427249L17.2659 5.65253C17.6527 5.94776 17.9789 6.19671 18.2217 6.52102C18.435 6.80597 18.594 7.12776 18.6908 7.47029C18.8009 7.86012 18.8005 8.27044 18.8001 8.75705L18.8 15.106V15.106C18.8001 15.6358 18.8001 16.087 18.7698 16.4574C18.738 16.8466 18.6684 17.2252 18.484 17.5871C18.2059 18.1328 17.7623 18.5764 17.2166 18.8545C16.8547 19.0389 16.4761 19.1085 16.0869 19.1403C15.7165 19.1706 15.2654 19.1706 14.7355 19.1706H14.7355H8.50037H4.06469H4.06467C3.53483 19.1706 3.08364 19.1706 2.71322 19.1403C2.32406 19.1085 1.94547 19.0389 1.58354 18.8545C1.03787 18.5764 0.594225 18.1328 0.316194 17.5871C0.131781 17.2252 0.0621467 16.8466 0.0303512 16.4574C8.58564e-05 16.087 9.84323e-05 15.6358 0.000113214 15.106L5.61131e-05 8.75706C-0.000391337 8.27045 -0.000768696 7.86012 0.109385 7.47029C0.206172 7.12776 0.36519 6.80597 0.578489 6.52102C0.821244 6.19671 1.14742 5.94776 1.53423 5.65253L8.36742 0.427249L8.40247 0.400045C8.52508 0.304292 8.75786 0.122496 9.03863 0.0474641Z" fill="#8C8C8C"/>
</svg>
