<svg width="54" height="50" viewBox="0 0 54 50" fill="none" xmlns="http://www.w3.org/2000/svg">
<ellipse cx="10.8" cy="33" rx="10.8" ry="10" fill="#CC5153" fill-opacity="0.3"/>
<path d="M43.7478 24.2282C45.2881 22.8074 47.0416 21.497 48.5018 20.448C50.9795 18.6731 51.9958 15.8032 51.2203 12.7718C50.3319 9.29891 47.4287 6.61499 43.8254 5.93424C42.9264 5.76253 42.0246 5.73201 41.1363 5.84147C38.6852 6.15967 36.7015 7.91178 35.3991 10.9058C35.3691 10.9737 35.348 11.038 35.3191 11.1066C34.5765 11.2111 33.828 11.2992 33.0769 11.3681V0.833333C33.0769 0.373128 32.67 0 32.1672 0C31.6643 0 31.2575 0.373128 31.2575 0.833333V12.0833C31.2575 12.6733 30.0901 13.3333 28.5283 13.3333C26.9666 13.3333 25.7992 12.6733 25.7992 12.0833V0.833333C25.7992 0.373128 25.3924 0 24.8895 0C24.3867 0 23.9798 0.373128 23.9798 0.833333V11.3681C23.2285 11.2992 22.4798 11.2111 21.7372 11.1065C21.7096 11.0411 21.6867 10.972 21.6585 10.9082C20.3552 7.91178 18.3715 6.15967 15.916 5.84106C15.0311 5.73039 14.1294 5.76253 13.2339 5.93384C9.62801 6.61499 6.72477 9.29891 5.83639 12.7718C5.06083 15.8032 6.07714 18.6731 8.55395 20.4476C10.0145 21.4968 11.7687 22.8076 13.309 24.2282C9.28998 24.8436 3.05664 30.6451 3.05664 33.3333C3.05664 34.8775 3.66518 36.3354 4.77122 37.4394C5.92345 38.5864 6.67058 40.1493 6.93088 41.9596C7.4257 45.3638 7.04459 47.642 6.85714 48.4639C6.77186 48.8407 6.87491 49.2281 7.13965 49.5264C7.40705 49.8275 7.80416 50 8.22969 50H12.4548C12.8821 50 13.2801 49.8263 13.5475 49.5227C13.8132 49.2216 13.9144 48.8314 13.8256 48.4517C13.6071 47.522 12.8431 44.2501 12.2061 41.1796C11.9014 39.7111 12.0018 38.1502 12.5055 36.5409C12.7631 35.719 12.9488 34.6912 13.058 33.4871C13.0598 33.4639 13.0634 33.4143 13.0634 33.3915V33.1917C13.0634 32.8158 13.3885 32.5077 13.8132 32.4923C13.9589 32.5024 14.1028 32.4967 14.2378 32.4744C14.6309 32.4344 15.8732 32.2951 16.992 32.0615C17.0066 32.7427 17.2925 33.3862 17.8144 33.8643L19.6614 35.5558C20.4743 36.3013 21.6727 36.5845 22.7921 36.2931L27.7457 35H29.311L34.2655 36.2931C34.556 36.3688 34.8527 36.4054 35.1459 36.4054C35.981 36.4054 36.7938 36.1076 37.3953 35.5558L39.2422 33.8643C39.7639 33.3864 40.0495 32.7435 40.0641 32.0616C41.1825 32.2951 42.4246 32.4344 42.8189 32.4744C42.9734 32.5 43.1325 32.5045 43.2568 32.4919C43.6628 32.4919 43.9933 32.7946 43.9933 33.1665V33.3915C43.9933 33.4147 43.9977 33.4717 43.9995 33.4949C44.0279 33.8074 44.115 34.7579 44.3398 35.7499C44.919 38.3012 44.9083 40.9782 44.3105 43.7061C43.8618 45.7495 43.4372 47.5802 43.2311 48.4521C43.1422 48.8314 43.2435 49.2216 43.5091 49.5227C43.7765 49.8263 44.1745 50 44.6018 50H48.0603C48.8252 50 49.44 49.4539 49.4604 48.7585C49.4871 47.9032 49.6061 45.529 50.1258 41.9588C50.3861 40.1493 51.1332 38.5864 52.2872 37.4386C53.3915 36.3354 54 34.8775 54 33.3333C54 30.6451 47.7668 24.8438 43.7478 24.2282ZM35.5048 25.3202C34.9726 26.7312 33.6011 27.8935 32.2489 28.6055C32.5268 26.16 33.5503 24.0132 35.302 22.1984C35.8082 23.2779 35.8805 24.3247 35.5048 25.3202ZM21.7545 22.1983C23.5049 24.0115 24.528 26.1564 24.8067 28.5994C23.4397 27.8794 22.0806 26.723 21.5519 25.3202C21.1761 24.3243 21.2486 23.2771 21.7545 22.1983ZM29.3745 14.9469C29.4596 14.937 29.5404 14.9219 29.6237 14.9091C29.8134 14.8799 29.9978 14.8447 30.1768 14.8012C30.2621 14.7804 30.3456 14.7592 30.4281 14.7354C30.6085 14.6833 30.7802 14.6232 30.9465 14.5571C31.0079 14.5328 31.0722 14.5118 31.1315 14.4856C31.3492 14.3895 31.5539 14.2831 31.741 14.1645C31.7735 14.1438 31.7999 14.1198 31.8314 14.0985C31.982 13.9968 32.1211 13.889 32.2474 13.7738C32.2966 13.7289 32.3398 13.6821 32.385 13.6353C32.4836 13.5334 32.572 13.4278 32.6507 13.3177C32.6871 13.2668 32.7237 13.2166 32.7556 13.1641C32.7751 13.1319 32.8023 13.1024 32.8201 13.0697C33.4464 13.018 34.0745 12.9537 34.6982 12.8776C34.6968 12.8822 34.6957 12.887 34.6943 12.8915C34.6882 12.9125 34.683 12.934 34.6769 12.955C34.6217 13.1481 34.5689 13.3428 34.5189 13.5391C34.5007 13.6104 34.4843 13.6821 34.4668 13.7538C34.4307 13.9018 34.3953 14.0495 34.3622 14.1982C34.344 14.2801 34.3271 14.3617 34.3098 14.4437C34.2804 14.5827 34.252 14.7212 34.2253 14.8599C34.2088 14.9457 34.193 15.0308 34.1775 15.1162C34.1529 15.2521 34.1296 15.3871 34.1076 15.5218C34.0939 15.6055 34.0803 15.6887 34.0677 15.7717C34.0467 15.9088 34.0279 16.0439 34.0097 16.1787C33.9991 16.2571 33.9879 16.3357 33.9783 16.4132C33.9605 16.5574 33.9452 16.6985 33.9305 16.8391C33.9238 16.9032 33.916 16.9685 33.91 17.0317C33.891 17.2318 33.8749 17.4281 33.8627 17.6183C33.861 17.6457 33.8605 17.6709 33.8589 17.698C33.8493 17.8602 33.8417 18.0188 33.8372 18.172C33.8353 18.2385 33.8354 18.3006 33.8344 18.3652C33.8328 18.474 33.8314 18.5819 33.8325 18.6849C33.8333 18.7549 33.8357 18.8208 33.8377 18.8879C33.8405 18.9788 33.8438 19.0678 33.8489 19.1531C33.8529 19.2187 33.8577 19.2814 33.8631 19.3434C33.8699 19.4219 33.8777 19.4971 33.8868 19.5695C33.8939 19.6273 33.9014 19.6837 33.91 19.7374C33.921 19.8055 33.9337 19.868 33.947 19.9292C33.9572 19.9764 33.967 20.0247 33.9786 20.0676C33.9949 20.1279 34.0138 20.1795 34.0328 20.2309C34.0448 20.2631 34.0554 20.2993 34.0685 20.3278C34.0993 20.3955 34.1333 20.452 34.1703 20.498C34.1736 20.5021 34.176 20.5092 34.1793 20.5131C34.2335 20.5766 34.2745 20.6377 34.3264 20.701C31.9015 23.0262 30.575 25.8511 30.3744 29.1178C29.367 29.1219 27.6897 29.1219 26.6823 29.1178C26.4817 25.8511 25.1553 23.0261 22.7303 20.7009C22.7817 20.6381 22.8229 20.5768 22.8765 20.5139C22.9178 20.4655 22.9548 20.4012 22.9887 20.3265C22.9998 20.3021 23.0088 20.2709 23.0191 20.2439C23.0404 20.188 23.0611 20.1304 23.079 20.0636C23.0892 20.0256 23.0978 19.9827 23.1069 19.9414C23.1216 19.8749 23.1355 19.8065 23.1474 19.7319C23.1553 19.6825 23.1621 19.6306 23.1687 19.5778C23.1784 19.5009 23.1869 19.4211 23.194 19.3374C23.199 19.2786 23.2037 19.2193 23.2075 19.1573C23.2126 19.0712 23.2161 18.9813 23.2189 18.8894C23.221 18.8209 23.2235 18.7535 23.2243 18.6819C23.2252 18.5901 23.2239 18.4938 23.2227 18.3973C23.2218 18.3188 23.2217 18.2426 23.2193 18.1614C23.2165 18.0683 23.211 17.9704 23.2063 17.8739C23.1955 17.65 23.1802 17.419 23.1594 17.1795C23.156 17.1408 23.1539 17.1039 23.1502 17.0648C23.1375 16.9279 23.1214 16.7873 23.1055 16.6466C23.0987 16.5865 23.0929 16.5277 23.0855 16.467C23.0683 16.3248 23.0484 16.1807 23.0279 16.0358C23.0193 15.9746 23.0111 15.9139 23.0019 15.8523C22.9797 15.7033 22.9554 15.5536 22.93 15.4027C22.9204 15.3457 22.9108 15.2889 22.9007 15.2317C22.8733 15.0756 22.8442 14.9197 22.8133 14.7627C22.8031 14.711 22.7925 14.6594 22.7819 14.6076C22.749 14.4456 22.7149 14.2843 22.6783 14.1225C22.6683 14.0784 22.6575 14.0345 22.6473 13.9905C22.6082 13.8224 22.5685 13.6551 22.5255 13.4886C22.5182 13.4601 22.51 13.4321 22.5026 13.4037C22.4564 13.2272 22.4096 13.0511 22.359 12.8777C22.9824 12.9537 23.6104 13.018 24.2366 13.0697C24.2544 13.1024 24.2815 13.1319 24.3011 13.1641C24.333 13.2166 24.3696 13.2668 24.406 13.3177C24.4847 13.4278 24.5731 13.5334 24.6716 13.6353C24.7169 13.6821 24.7601 13.7289 24.8093 13.7738C24.9356 13.889 25.0747 13.9968 25.2253 14.0985C25.2568 14.1198 25.2832 14.1438 25.3157 14.1645C25.5027 14.2831 25.7075 14.3895 25.9252 14.4856C25.9845 14.5118 26.0488 14.5328 26.1102 14.5571C26.2765 14.6232 26.4482 14.6833 26.6286 14.7354C26.7111 14.7592 26.7946 14.7804 26.8799 14.8012C27.0588 14.8447 27.2433 14.8799 27.433 14.9091C27.5163 14.9219 27.5971 14.937 27.6822 14.9469C27.9566 14.9788 28.2374 15 28.5283 15C28.8193 15 29.1001 14.9788 29.3745 14.9469ZM13.9447 30.8301C13.9118 30.8268 13.8603 30.8252 13.8274 30.8252C12.4033 30.8252 11.244 31.8868 11.244 33.1917L11.2449 33.3496C11.1214 34.7139 10.9117 35.588 10.7571 36.0815C10.1744 37.9435 10.0598 39.764 10.4187 41.4909C10.9775 44.1842 11.6322 47.0296 11.9369 48.3333H8.73518C8.96794 47.0719 9.18381 44.8352 8.73429 41.7407C8.42514 39.5894 7.51721 37.7116 6.1109 36.3114C5.31402 35.5168 4.87605 34.4592 4.87605 33.3333C4.87605 31.5621 10.8913 25.8333 13.9731 25.8333C14.3103 25.8333 14.6276 25.8465 14.9221 25.8716C15.0103 25.9722 15.0982 26.0727 15.1812 26.1723C15.2427 26.2461 15.307 26.3204 15.3656 26.3936C15.5265 26.5945 15.6774 26.7934 15.8168 26.9901C15.8286 27.0067 15.8426 27.0238 15.8543 27.0404C16.01 27.2626 16.1511 27.4817 16.2792 27.6984C16.2964 27.7275 16.3103 27.7558 16.327 27.7848C16.4345 27.9714 16.5329 28.1562 16.6197 28.3387C16.6379 28.3768 16.6537 28.4143 16.6709 28.4521C16.7515 28.6296 16.8233 28.8054 16.8841 28.9789C16.8949 29.0098 16.9056 29.0404 16.9158 29.0711C16.9781 29.2596 17.0297 29.446 17.0684 29.6298C17.0712 29.643 17.075 29.6566 17.0776 29.6698C17.1212 29.886 17.1465 30.0983 17.1572 30.3079C16.2922 30.538 14.8807 30.7343 13.9447 30.8301ZM37.9559 32.686L36.1089 34.3774C35.7607 34.696 35.2418 34.8157 34.7639 34.6899L29.6877 33.3651C29.6059 33.3439 29.5224 33.3333 29.438 33.3333H27.6186C27.5342 33.3333 27.4507 33.3439 27.369 33.3651L22.2937 34.6899C21.8113 34.8157 21.2951 34.696 20.9478 34.3774L19.1008 32.686C18.845 32.4516 18.7517 32.1053 18.8432 31.7391C18.916 31.4534 18.9569 31.1861 18.964 30.9627C18.9873 30.713 18.9931 30.4617 18.9812 30.2086C18.9203 28.9086 18.3871 27.5603 17.3802 26.1339C17.0146 25.6158 16.592 25.0884 16.099 24.5479C14.2076 22.4817 11.6731 20.5701 9.67598 19.1353C7.77129 17.771 6.99839 15.5343 7.60782 13.1523C8.32386 10.3532 10.7323 8.10832 13.6044 7.56592C14.2991 7.43286 14.9929 7.40763 15.6646 7.49186C17.4573 7.72461 18.9054 9.08162 19.9697 11.5275C20.0514 11.7147 20.134 11.9088 20.2095 12.133C21.3991 15.2551 21.5306 18.8334 21.3626 19.5825C21.1485 19.8381 20.9504 20.0936 20.7763 20.3414L20.7746 20.3451C19.4916 22.1885 19.1658 24.0971 19.832 25.8643C20.7328 28.254 23.3269 30.0289 25.5505 30.7434C25.5998 30.7563 25.9163 30.7661 26.3688 30.7732C26.9387 30.7822 27.7291 30.7869 28.5283 30.7869C29.9622 30.7869 31.3951 30.7723 31.5062 30.7434C31.5169 30.7406 31.525 30.7339 31.5355 30.7308C31.5411 30.7298 31.5558 30.729 31.5595 30.7279C33.7298 30.0289 36.3239 28.254 37.2247 25.8643C37.891 24.0967 37.565 22.1875 36.2804 20.3414C36.1062 20.0936 35.9081 19.8385 35.694 19.5825C35.6835 19.5357 35.6742 19.4778 35.6663 19.4097C35.5468 18.3878 35.7335 15.0574 36.8578 12.1033C36.9227 11.9088 37.0053 11.7147 37.0879 11.5251C38.1513 9.08162 39.5994 7.72461 41.3877 7.49227C42.062 7.40845 42.7567 7.43164 43.4549 7.56632C46.3244 8.10832 48.7328 10.3532 49.4489 13.1523C50.0583 15.5343 49.2854 17.771 47.3807 19.1353L47.3798 19.1357C45.3836 20.5701 42.8491 22.4817 40.9568 24.5492C38.8425 26.8669 37.9061 28.9648 38.09 30.9216C38.0902 30.926 38.0919 30.9308 38.0921 30.9352C38.0929 30.9443 38.0918 30.9536 38.0927 30.9627C38.0939 30.9764 38.1001 30.9886 38.1021 31.0021C38.1165 31.241 38.1477 31.4814 38.2126 31.7362C38.305 32.1053 38.2117 32.4516 37.9559 32.686ZM50.9476 36.3106C49.5395 37.7116 48.6315 39.5894 48.3224 41.7395C47.8542 44.9544 47.7041 47.2335 47.6561 48.3333H45.1198C45.3481 47.3564 45.7132 45.7719 46.0943 44.0344C46.7411 41.0852 46.75 38.1836 46.1219 35.4106C45.9184 34.5178 45.8385 33.6434 45.8127 33.3915V33.1665C45.8127 31.8754 44.6658 30.8252 43.2568 30.8252L43.1547 30.8366C43.1218 30.8301 43.0889 30.8248 43.0552 30.8215C42.1647 30.7326 40.761 30.5373 39.8981 30.3075C39.8987 30.2943 39.8969 30.2817 39.8976 30.2685C39.9003 30.2191 39.9094 30.1683 39.914 30.1184C39.9267 29.983 39.9436 29.8465 39.9703 29.7078C39.9831 29.6413 40.0006 29.5737 40.0166 29.5064C40.0466 29.3805 40.0811 29.2535 40.1223 29.1251C40.1455 29.0531 40.1704 28.9806 40.1971 28.9078C40.2446 28.7781 40.2988 28.6469 40.3575 28.5147C40.389 28.4437 40.4191 28.373 40.4539 28.3012C40.5259 28.1525 40.6076 28.0018 40.6935 27.8501C40.7252 27.794 40.7528 27.7388 40.7864 27.6824C40.9112 27.4727 41.0478 27.2606 41.1986 27.0455C41.2201 27.0148 41.2459 26.9832 41.268 26.9523C41.3996 26.7684 41.5395 26.5827 41.6899 26.395C41.7485 26.3218 41.8129 26.2475 41.8743 26.1738C41.9577 26.0737 42.0461 25.9727 42.1347 25.8716C42.4291 25.8466 42.7465 25.8333 43.0836 25.8333C46.1654 25.8333 52.1806 31.5621 52.1806 33.3333C52.1806 34.4592 51.7427 35.5168 50.9476 36.3106Z" fill="#8C8C8C"/>
</svg>
