<svg width="50" height="50" viewBox="0 0 50 50" fill="none" xmlns="http://www.w3.org/2000/svg">
<circle cx="38" cy="14" r="10" fill="#CC5153" fill-opacity="0.3"/>
<path d="M35.8195 10.1147L19.6102 3.82152V1.66662C19.6102 1.23571 19.2814 0.875606 18.8521 0.836544L9.68547 0.00321062C9.45272 -0.0171345 9.22119 0.0597699 9.04826 0.218054C8.87533 0.375932 8.77686 0.59932 8.77686 0.833289V22.5C8.77686 22.9028 9.06494 23.2478 9.46126 23.3199L18.6279 24.9865C18.6776 24.9955 18.7272 25 18.7769 25C18.9705 25 19.1597 24.9324 19.3107 24.8063C19.5003 24.648 19.6102 24.4136 19.6102 24.1666V22.0821L23.6324 22.9158C24.5797 23.1123 25.1937 24.0519 25.0008 25.0105C24.4161 27.915 23.9347 32.3706 24.9495 37.0271L25.6225 42.452L26.2968 49.2488C26.3391 49.6752 26.6976 49.9999 27.1261 49.9999H35.8846C36.3131 49.9999 36.6715 49.6752 36.7139 49.2488L37.3863 42.4749L41.1157 19.3579C41.7493 15.4447 39.5227 11.5576 35.8195 10.1147ZM10.4435 21.8046V1.74597L17.9435 2.42753V4.38833C17.9435 4.38945 17.9431 4.39052 17.9431 4.39164V21.0583C17.9431 21.0591 17.9435 21.0598 17.9435 21.0606V23.1681L10.4435 21.8046ZM35.1298 48.3333H27.8809L27.3714 43.1998H35.6396L35.1298 48.3333ZM39.4702 19.0917L35.85 41.5332H27.1875L26.5906 36.748C25.6246 32.2989 26.0815 28.0883 26.6349 25.3393C27.0076 23.4847 25.8126 21.6654 23.9705 21.2841L19.6102 20.3801V5.60924L35.2152 11.6678C38.1897 12.8271 39.9792 15.9493 39.4702 19.0917Z" fill="#8C8C8C"/>
<path d="M32.2472 15.1502C31.7947 15.0737 31.3687 15.3792 31.2909 15.8309C31.2132 16.283 31.5172 16.7131 31.9688 16.7932C32.239 16.8412 34.61 17.3352 34.61 19.8613C34.61 20.3215 34.9832 20.6946 35.4434 20.6946C35.9036 20.6946 36.2767 20.3215 36.2767 19.8613C36.2767 16.6663 33.6408 15.3825 32.2472 15.1502Z" fill="#8C8C8C"/>
</svg>
