<svg width="58" height="58" viewBox="0 0 58 58" fill="none" xmlns="http://www.w3.org/2000/svg">
<ellipse cx="42.9998" cy="20.5" rx="6" ry="10.5" transform="rotate(-13.1234 42.9998 20.5)" fill="#CC5153" fill-opacity="0.3"/>
<path d="M39.8195 14.1147L23.6102 7.82152V5.66662C23.6102 5.23571 23.2814 4.87561 22.8521 4.83654L13.6855 4.00321C13.4527 3.98287 13.2212 4.05977 13.0483 4.21805C12.8753 4.37593 12.7769 4.59932 12.7769 4.83329V26.5C12.7769 26.9028 13.0649 27.2478 13.4613 27.3199L22.6279 28.9865C22.6776 28.9955 22.7272 29 22.7769 29C22.9705 29 23.1597 28.9324 23.3107 28.8063C23.5003 28.648 23.6102 28.4136 23.6102 28.1666V26.0821L27.6324 26.9158C28.5797 27.1123 29.1937 28.0519 29.0008 29.0105C28.4161 31.915 27.9347 36.3706 28.9495 41.0271L29.6225 46.452L30.2968 53.2488C30.3391 53.6752 30.6976 53.9999 31.1261 53.9999H39.8846C40.3131 53.9999 40.6715 53.6752 40.7139 53.2488L41.3863 46.4749L45.1157 23.3579C45.7493 19.4447 43.5227 15.5576 39.8195 14.1147ZM14.4435 25.8046V5.74597L21.9435 6.42753V8.38833C21.9435 8.38945 21.9431 8.39052 21.9431 8.39164V25.0583C21.9431 25.0591 21.9435 25.0598 21.9435 25.0606V27.1681L14.4435 25.8046ZM39.1298 52.3333H31.8809L31.3714 47.1998H39.6396L39.1298 52.3333ZM43.4702 23.0917L39.85 45.5332H31.1875L30.5906 40.748C29.6246 36.2989 30.0815 32.0883 30.6349 29.3393C31.0076 27.4847 29.8126 25.6654 27.9705 25.2841L23.6102 24.3801V9.60924L39.2152 15.6678C42.1897 16.8271 43.9792 19.9493 43.4702 23.0917Z" fill="#8C8C8C"/>
<path d="M36.2472 19.1502C35.7947 19.0737 35.3687 19.3792 35.2909 19.8309C35.2132 20.283 35.5172 20.7131 35.9688 20.7932C36.239 20.8412 38.61 21.3352 38.61 23.8613C38.61 24.3215 38.9832 24.6946 39.4434 24.6946C39.9036 24.6946 40.2767 24.3215 40.2767 23.8613C40.2767 20.6663 37.6408 19.3825 36.2472 19.1502Z" fill="#8C8C8C"/>
</svg>
