<svg width="20" height="20" viewBox="0 0 20 20" fill="none" xmlns="http://www.w3.org/2000/svg">
<path d="M17.4979 3.33289V16.6647" stroke="#1F1F1F" stroke-width="1.66647" stroke-linecap="round" stroke-linejoin="round"/>
<path d="M5.02357 3.57037C4.77069 3.41865 4.48207 3.33674 4.18719 3.33302C3.89231 3.3293 3.60172 3.4039 3.34509 3.5492C3.08847 3.6945 2.875 3.90529 2.72647 4.16007C2.57795 4.41484 2.49969 4.70447 2.49969 4.99937V14.9982C2.49969 15.2931 2.57795 15.5827 2.72647 15.8375C2.875 16.0923 3.08847 16.3031 3.34509 16.4484C3.60172 16.5937 3.89231 16.6683 4.18719 16.6646C4.48207 16.6608 4.77069 16.5789 5.02357 16.4272L13.3534 11.4295C13.6007 11.2817 13.8055 11.0724 13.9477 10.8219C14.09 10.5715 14.1649 10.2884 14.1652 10.0003C14.1654 9.71228 14.091 9.42907 13.9492 9.17836C13.8073 8.92764 13.6029 8.71796 13.3559 8.56979L5.02357 3.57037Z" fill="#1F1F1F" stroke="#1F1F1F" stroke-width="1.5" stroke-linecap="round" stroke-linejoin="round"/>
</svg>
