<svg width="50" height="50" viewBox="0 0 50 50" fill="none" xmlns="http://www.w3.org/2000/svg">
<path d="M21.08 46.8327C14.9206 49.6662 8.09357 45.9396 8.02597 45.9018C6.96318 45.3307 6.20438 47.1738 7.25592 47.7881C7.47566 47.9106 11.2812 50 15.9606 50C17.8047 50 19.7849 49.6754 21.7341 48.7782C22.1928 48.5669 22.4187 47.9606 22.2382 47.4227C22.0576 46.8868 21.5418 46.6245 21.08 46.8327Z" fill="#8C8C8C"/>
<path d="M49.2539 39.8051C43.6343 38.7943 37.6487 35.4921 36.1508 34.6286C35.1919 29.7785 35.8554 22.1312 36.3338 18.7147C40.1729 13.7433 43.1507 7.15826 43.1507 1.19425C43.1253 -0.163775 41.3921 -0.19576 41.3646 1.1943C41.3646 12.1517 30.722 24.4963 25.0506 24.4963C17.6113 23.8265 8.37102 10.2567 8.53424 1.04535C8.53425 0.467485 8.13438 0 7.64119 0C7.148 0 6.74813 0.467495 6.74813 1.04522C6.74813 7.06251 9.77768 13.7086 13.677 18.7145C14.1574 22.1874 14.81 29.7999 13.8577 34.6302C12.3558 35.4959 6.37399 38.7949 0.75749 39.8051C0.269969 39.8929 -0.0644901 40.4267 0.0105089 40.9973C0.0780956 41.5138 0.45878 41.8833 0.891797 41.8833C5.46927 41.1265 10.2469 38.8586 12.8942 37.4732C12.4882 38.0826 12.036 38.7671 12.6385 39.4469C13.0013 39.8362 13.5663 39.8084 13.9004 39.3825C17.0409 34.7856 16.1331 26.0412 15.7679 21.1527C18.8866 24.4463 22.2879 26.5868 25.0506 26.5868C27.7851 26.5868 31.1521 24.4554 34.2386 21.1762C33.7962 25.5112 33.0332 37.7983 36.7697 39.7216C37.512 39.7475 37.9634 38.607 37.4278 37.9698C37.3146 37.8253 37.2171 37.6458 37.1166 37.4729C39.7481 38.8588 44.413 41.0492 48.9827 41.8711C50.1204 42.0581 50.4313 40.0469 49.2539 39.8051Z" fill="#8C8C8C"/>
<path d="M41.9855 45.9018C41.9175 45.9406 35.0913 49.6683 28.9315 46.8327C27.834 46.3539 27.1906 48.2526 28.2774 48.7782C30.227 49.6754 32.2068 50 34.0509 50C38.7298 50 42.5358 47.9106 42.7556 47.7881C43.8013 47.1768 43.0558 45.3303 41.9855 45.9018Z" fill="#8C8C8C"/>
<path d="M20.4469 15.1983C23.4569 17.0635 26.4028 17.3952 29.1259 15.1238C29.5262 14.787 29.6173 14.1337 29.3291 13.6652C29.0404 13.1967 28.4831 13.0895 28.0828 13.4274C26.1711 15.036 23.9476 15.0125 21.2868 13.3528C20.2424 12.7315 19.4195 14.5303 20.4469 15.1983Z" fill="#8C8C8C"/>
<circle cx="13" cy="35" r="10" fill="#CC5153" fill-opacity="0.3"/>
</svg>
