<svg width="20" height="20" viewBox="0 0 20 20" fill="none" xmlns="http://www.w3.org/2000/svg">
<path d="M2.4997 3.33289V16.6647" stroke="#1F1F1F" stroke-width="1.66647" stroke-linecap="round" stroke-linejoin="round"/>
<path d="M14.9741 3.57037C15.227 3.41865 15.5156 3.33674 15.8105 3.33302C16.1053 3.3293 16.3959 3.4039 16.6526 3.5492C16.9092 3.6945 17.1227 3.90529 17.2712 4.16007C17.4197 4.41484 17.498 4.70447 17.498 4.99937V14.9982C17.498 15.2931 17.4197 15.5827 17.2712 15.8375C17.1227 16.0923 16.9092 16.3031 16.6526 16.4484C16.3959 16.5937 16.1053 16.6683 15.8105 16.6646C15.5156 16.6608 15.227 16.5789 14.9741 16.4272L6.64424 11.4295C6.39696 11.2817 6.19219 11.0724 6.04993 10.8219C5.90766 10.5715 5.83275 10.2884 5.83249 10.0003C5.83224 9.71228 5.90666 9.42907 6.04849 9.17836C6.19032 8.92764 6.39471 8.71796 6.64174 8.56979L14.9741 3.57037Z" fill="#1F1F1F" stroke="#1F1F1F" stroke-width="1.66647" stroke-linecap="round" stroke-linejoin="round"/>
</svg>
