<svg width="24" height="24" viewBox="0 0 24 24" fill="none" xmlns="http://www.w3.org/2000/svg">
<path d="M0.75 11.7499C0.8941 15.2633 3.1678 22.1363 10.98 22.7259C11.4398 22.76 11.6697 22.7776 11.7357 22.6379C11.8017 22.4993 11.6356 22.3376 11.3034 22.0141L9.8118 20.5621M22.75 11.7499C22.6059 8.23752 20.3322 1.3635 12.52 0.773895C12.0602 0.739794 11.8303 0.722194 11.7643 0.861896C11.6983 1.0005 11.8644 1.1622 12.1966 1.48561L13.6882 2.93763M7.4336 13.3405C5.9343 11.8412 5.183 11.0899 5.15 10.1934C5.117 9.29684 5.8133 8.59833 7.2048 7.2057C8.5974 5.81418 9.2937 5.11787 10.1924 5.15087C11.09 5.18387 11.8402 5.93408 13.3384 7.43341L16.0664 10.1593C17.5646 11.6586 18.3148 12.4088 18.3478 13.3075C18.3808 14.2051 17.6845 14.9014 16.293 16.2941C14.9015 17.6867 14.2041 18.3819 13.3054 18.3489C12.4078 18.3159 11.6576 17.5657 10.1594 16.0664L7.4336 13.3405Z" stroke="#FCFCFC" stroke-width="1.5" stroke-linecap="round"/>
</svg>
