<svg width="20" height="20" viewBox="0 0 20 20" fill="none" xmlns="http://www.w3.org/2000/svg">
<g clip-path="url(#clip0_893_10792)">
<path d="M10.6904 1.81642C10.4733 1.71739 10.2374 1.66614 9.99882 1.66614C9.76019 1.66614 9.52435 1.71739 9.30724 1.81642L2.16641 5.06604C2.01855 5.13123 1.89284 5.23802 1.80458 5.37338C1.71633 5.50875 1.66934 5.66685 1.66934 5.82845C1.66934 5.99004 1.71633 6.14815 1.80458 6.28351C1.89284 6.41888 2.01855 6.52566 2.16641 6.59086L9.31557 9.84881C9.53268 9.94784 9.76852 9.99909 10.0072 9.99909C10.2458 9.99909 10.4816 9.94784 10.6987 9.84881L17.8479 6.59919C17.9958 6.534 18.1215 6.42721 18.2097 6.29185C18.298 6.15648 18.345 5.99837 18.345 5.83678C18.345 5.67519 18.298 5.51708 18.2097 5.38171C18.1215 5.24635 17.9958 5.13957 17.8479 5.07437L10.6904 1.81642Z" stroke="#454545" stroke-width="1.66647" stroke-linecap="round" stroke-linejoin="round"/>
<path d="M1.66648 9.99878C1.66608 10.1581 1.7114 10.3143 1.79706 10.4487C1.88272 10.5831 2.00512 10.6901 2.14975 10.757L9.31558 14.015C9.53156 14.1128 9.76591 14.1634 10.003 14.1634C10.2401 14.1634 10.4744 14.1128 10.6904 14.015L17.8396 10.7654C17.9871 10.6991 18.1121 10.5913 18.1994 10.4552C18.2867 10.3191 18.3325 10.1605 18.3312 9.99878" stroke="#454545" stroke-width="1.66647" stroke-linecap="round" stroke-linejoin="round"/>
<path d="M1.66648 14.165C1.66608 14.3244 1.7114 14.4805 1.79706 14.6149C1.88272 14.7493 2.00512 14.8563 2.14975 14.9233L9.31558 18.1812C9.53156 18.279 9.76591 18.3296 10.003 18.3296C10.2401 18.3296 10.4744 18.279 10.6904 18.1812L17.8396 14.9316C17.9871 14.8653 18.1121 14.7575 18.1994 14.6214C18.2867 14.4853 18.3325 14.3267 18.3312 14.165" stroke="#454545" stroke-width="1.66647" stroke-linecap="round" stroke-linejoin="round"/>
</g>
<defs>
<clipPath id="clip0_893_10792">
<rect width="19.9977" height="19.9977" fill="white"/>
</clipPath>
</defs>
</svg>
