<svg width="50" height="50" viewBox="0 0 50 50" fill="none" xmlns="http://www.w3.org/2000/svg">
<path d="M14.0407 20.2601C18.339 19.2224 21.7786 18.7162 24.5443 18.31C28.9787 17.6593 31.9083 17.2276 33.8631 15.1436C35.7181 13.1659 36.5746 9.98878 37.1388 3.00075C37.1869 2.41596 36.7786 1.90134 36.2264 1.85027C35.6781 1.79923 35.1918 2.23305 35.1438 2.81783C34.6335 9.1552 33.9011 12.0873 32.4443 13.6421C30.9656 15.2179 28.4462 15.5879 24.268 16.2025C21.4644 16.6151 17.9767 17.1276 13.5942 18.1866C10.6066 18.9053 8.0294 20.5896 6.13808 23.0564C4.24508 25.5232 3.21654 28.5472 3.16049 31.7989L2.83032 48.9154C2.81831 49.5023 3.25855 49.9872 3.81086 50H3.83087C4.37316 50 4.81941 49.5385 4.83139 48.9579L5.16357 31.8393C5.26163 26.1677 8.82793 21.5149 14.0407 20.2601Z" fill="#8C8C8C"/>
<path d="M48.9995 0C48.4473 0 47.999 0.47635 47.999 1.06327V48.9367C47.999 49.5237 48.4473 50 48.9995 50C49.5518 50 50.0001 49.5237 50.0001 48.9367V1.06327C50.0001 0.47635 49.5518 0 48.9995 0Z" fill="#8C8C8C"/>
<path d="M19.9859 31.9749C19.4336 31.9749 18.9854 32.4512 18.9854 33.0381V48.9362C18.9854 49.5232 19.4336 49.9995 19.9859 49.9995C20.5382 49.9995 20.9864 49.5232 20.9864 48.9362V33.0381C20.9864 32.4491 20.5402 31.9749 19.9859 31.9749Z" fill="#8C8C8C"/>
<path d="M43.0365 21.1872C38.1659 20.0345 33.081 19.807 27.9265 20.5088C22.7818 21.2084 17.7113 22.8161 12.8565 25.285C12.3582 25.5381 12.1481 26.1739 12.3862 26.7035C12.5583 27.0862 12.9165 27.3074 13.2887 27.3074C13.4327 27.3074 13.5808 27.2734 13.7189 27.2032C23.0418 22.4631 33.3016 21.064 42.6024 23.2627C43.1407 23.3903 43.677 23.0288 43.797 22.4567C43.9151 21.8825 43.5748 21.3147 43.0365 21.1872Z" fill="#8C8C8C"/>
<circle cx="10" cy="23" r="10" fill="#CC5153" fill-opacity="0.3"/>
</svg>
