<svg width="44" height="44" viewBox="0 0 44 44" fill="none" xmlns="http://www.w3.org/2000/svg">
<path fill-rule="evenodd" clip-rule="evenodd" d="M18.6659 5.48896C20.1478 2.92229 23.8524 2.9223 25.3343 5.48897L39.1474 29.414C40.6293 31.9806 38.7769 35.189 35.8132 35.189H8.18699C5.22326 35.189 3.37094 31.9806 4.8528 29.414L18.6659 5.48896ZM22 11C22.9113 11 23.65 11.7387 23.65 12.65V20.35C23.65 21.2612 22.9113 22 22 22C21.0887 22 20.35 21.2612 20.35 20.35L20.35 12.65C20.35 11.7387 21.0887 11 22 11ZM22 30.8C23.215 30.8 24.2 29.815 24.2 28.6C24.2 27.3849 23.215 26.4 22 26.4C20.785 26.4 19.8 27.3849 19.8 28.6C19.8 29.815 20.785 30.8 22 30.8Z" fill="#17CA88"/>
</svg>
