<svg width="50" height="50" viewBox="0 0 50 50" fill="none" xmlns="http://www.w3.org/2000/svg">
<circle cx="12" cy="37" r="10" fill="#CC5153" fill-opacity="0.3"/>
<path d="M0.964957 31.1083C0.898135 31.1083 0.830371 31.1031 0.762137 31.0911C0.241674 31.0031 -0.0896154 30.5974 0.0214418 30.1849L2.82799 19.7981C2.50846 15.1872 3.80868 11.7115 6.69287 9.46645C9.87447 6.99019 13.9422 6.84923 15.1125 6.86564L19.2174 4.91372V0.76376C19.2174 0.341604 19.6489 0 20.1811 0C20.7134 0 21.1449 0.341604 21.1449 0.76376V5.34632C21.1449 5.61483 20.9675 5.8632 20.6771 6.00118L15.8584 8.29247C15.6876 8.37451 15.4866 8.41031 15.2885 8.39912C15.2499 8.39838 11.0669 8.19028 8.02556 10.5703C5.54701 12.5103 4.4482 15.6198 4.75925 19.813C4.76443 19.8816 4.75784 19.9502 4.73996 20.0174L1.90659 30.5042C1.80964 30.8629 1.40966 31.1083 0.964957 31.1083Z" fill="#8C8C8C"/>
<path d="M49.0349 31.1083C48.5902 31.1083 48.1902 30.8629 48.0933 30.5042L45.2599 20.0174C45.242 19.9502 45.2354 19.8816 45.2406 19.813C45.5526 15.6101 44.4477 12.4954 41.9564 10.5569C38.8948 8.17387 34.7518 8.39465 34.7114 8.39912C34.5133 8.41106 34.3128 8.37451 34.1415 8.29247L29.3227 6.00118C29.0324 5.8632 28.855 5.61483 28.855 5.34632V0.76376C28.855 0.341604 29.2865 0 29.8187 0C30.351 0 30.7825 0.341604 30.7825 0.76376V4.91372L34.8874 6.86564C36.0685 6.84624 40.1254 6.99019 43.307 9.46645C46.1912 11.7115 47.4914 15.1872 47.1719 19.7981L49.9784 30.1849C50.0895 30.5974 49.7582 31.0031 49.2377 31.0911C49.1695 31.1031 49.1017 31.1083 49.0349 31.1083Z" fill="#8C8C8C"/>
<path d="M12.4726 50.0001C12.3949 50.0001 12.3163 49.9906 12.2378 49.9704C11.7215 49.8393 11.4076 49.307 11.5366 48.7823L13.4236 41.1048L12.4763 31.4703L11.2095 22.462C11.1342 21.9259 11.4999 21.429 12.0269 21.3524C12.5512 21.2787 13.0424 21.6482 13.1173 22.1844L14.3892 31.2339L15.3582 41.0789C15.369 41.191 15.361 41.3049 15.3342 41.414L13.4067 49.2572C13.297 49.7033 12.9041 50.0001 12.4726 50.0001Z" fill="#8C8C8C"/>
<path d="M37.528 50C37.0964 50 36.7035 49.7032 36.5939 49.257L34.6664 41.4139C34.6395 41.3048 34.6315 41.1908 34.6424 41.0788L35.6061 31.2749L36.8833 22.1842C36.9581 21.6471 37.4508 21.2747 37.9736 21.3523C38.5007 21.4288 38.8663 21.9257 38.791 22.4619L37.519 31.5114L36.5769 41.1037L38.464 48.7822C38.5929 49.3068 38.279 49.8392 37.7628 49.9703C37.6842 49.9904 37.6056 50 37.528 50Z" fill="#8C8C8C"/>
<path d="M28.8554 38.2355C28.3231 38.2355 27.8916 37.797 27.8916 37.2551C27.8916 36.7132 28.3231 36.2747 28.8554 36.2747C29.1424 36.2747 29.3758 36.0372 29.3758 35.7452V32.8826C29.3758 32.5906 29.1424 32.3531 28.8554 32.3531C28.3231 32.3531 27.8916 31.9146 27.8916 31.3727C27.8916 30.8308 28.3231 30.3923 28.8554 30.3923C30.205 30.3923 31.3033 31.5096 31.3033 32.8826V35.7452C31.3033 37.1182 30.205 38.2355 28.8554 38.2355Z" fill="#8C8C8C"/>
<path d="M21.1452 38.2355C19.7956 38.2355 18.6973 37.1182 18.6973 35.7452V32.8826C18.6973 31.5096 19.7956 30.3923 21.1452 30.3923C21.6775 30.3923 22.109 30.8308 22.109 31.3727C22.109 31.9146 21.6775 32.3531 21.1452 32.3531C20.8582 32.3531 20.6248 32.5906 20.6248 32.8826V35.7452C20.6248 36.0372 20.8582 36.2747 21.1452 36.2747C21.6775 36.2747 22.109 36.7132 22.109 37.2551C22.109 37.797 21.6775 38.2355 21.1452 38.2355Z" fill="#8C8C8C"/>
<path d="M28.8554 48.0392C28.3231 48.0392 27.8916 47.6007 27.8916 47.0588C27.8916 46.5169 28.3231 46.0784 28.8554 46.0784C29.1424 46.0784 29.3758 45.841 29.3758 45.5489V42.6863C29.3758 42.3943 29.1424 42.1568 28.8554 42.1568C28.3231 42.1568 27.8916 41.7183 27.8916 41.1764C27.8916 40.6345 28.3231 40.196 28.8554 40.196C30.205 40.196 31.3033 41.3133 31.3033 42.6863V45.5489C31.3033 46.9219 30.205 48.0392 28.8554 48.0392Z" fill="#8C8C8C"/>
<path d="M21.1452 48.0392C19.7956 48.0392 18.6973 46.9219 18.6973 45.5489V42.6863C18.6973 41.3133 19.7956 40.196 21.1452 40.196C21.6775 40.196 22.109 40.6345 22.109 41.1764C22.109 41.7183 21.6775 42.1568 21.1452 42.1568C20.8582 42.1568 20.6248 42.3943 20.6248 42.6863V45.5489C20.6248 45.841 20.8582 46.0784 21.1452 46.0784C21.6775 46.0784 22.109 46.5169 22.109 47.0588C22.109 47.6007 21.6775 48.0392 21.1452 48.0392Z" fill="#8C8C8C"/>
</svg>
