<svg width="51" height="50" viewBox="0 0 51 50" fill="none" xmlns="http://www.w3.org/2000/svg">
<circle cx="11.5225" cy="21" r="10" transform="rotate(90 11.5225 21)" fill="#CC5153" fill-opacity="0.3"/>
<path d="M41.0685 38.0473C41.7277 37.4297 42.0911 36.6081 42.0911 35.7352C42.0911 35.1231 41.9112 34.5505 41.5983 34.0602H42.1362C43.0591 34.0602 43.9282 33.7219 44.5837 33.1074C45.2429 32.4899 45.6059 31.669 45.6059 30.7954C45.6059 30.1833 45.426 29.6099 45.1131 29.1196H46.5304C47.4528 29.1196 48.3219 28.7813 48.9771 28.1676C49.6366 27.5501 50 26.7284 50 25.8548C50 24.982 49.6366 24.1604 48.9775 23.5436C48.4009 23.0028 47.6591 22.6762 46.8616 22.6056C47.1802 22.1121 47.3637 21.5334 47.3637 20.915C47.3637 20.0414 47.0003 19.2198 46.3411 18.603C45.6856 17.9885 44.8165 17.6502 43.894 17.6502H29.1874C33.5669 15.5694 34.5508 13.0029 34.5508 11.1199C34.5422 10.4418 34.2273 9.82194 33.641 9.4185C33.0404 9.0042 32.2616 8.88937 31.5597 9.11049L15.7332 14.0534C14.9325 14.304 14.1707 14.6531 13.4709 15.0907L10.5811 16.8953C9.79167 17.3888 8.8737 17.6502 7.92725 17.6502H0.833336C0.372723 17.6502 0 18.0056 0 18.4447C0 18.8838 0.372723 19.2392 0.833336 19.2392H7.92725C9.19922 19.2392 10.4329 18.8877 11.495 18.2244L14.3848 16.4197C14.9626 16.0582 15.5908 15.7704 16.2524 15.5632L32.0805 10.6195C32.2778 10.5574 32.4959 10.59 32.6648 10.7064C32.749 10.7638 32.8862 10.8709 32.8841 11.1153C32.8841 12.7267 31.8392 15.0294 26.8294 16.9085L25.072 17.7317C24.7245 17.8946 24.5402 18.2624 24.6277 18.6247C24.7156 18.9847 25.0521 19.2392 25.4395 19.2392H43.894C44.3766 19.2392 44.8307 19.4153 45.1729 19.7365C45.5111 20.0523 45.697 20.4712 45.697 20.915C45.697 21.839 44.8881 22.5908 43.894 22.5908H27.1969C26.7367 22.5908 26.3635 22.9462 26.3635 23.3853C26.3635 23.8244 26.7367 24.1798 27.1969 24.1798H43.894H46.5304C47.0129 24.1798 47.467 24.3559 47.8092 24.6771C48.4855 25.3102 48.4851 26.4026 47.8088 27.0341C47.467 27.3545 47.0129 27.5307 46.5304 27.5307H42.1362H27.1969C26.7367 27.5307 26.3635 27.886 26.3635 28.3251C26.3635 28.7642 26.7367 29.1196 27.1969 29.1196H42.1362C43.1303 29.1196 43.9392 29.8714 43.9392 30.7954C43.9392 31.2392 43.7533 31.6582 43.4151 31.9747C43.0733 32.2951 42.6192 32.4712 42.1362 32.4712H38.621H27.1969C26.7367 32.4712 26.3635 32.8266 26.3635 33.2657C26.3635 33.7048 26.7367 34.0602 27.1969 34.0602H38.621C39.6155 34.0602 40.4244 34.812 40.4244 35.7352C40.4244 36.179 40.238 36.5972 39.8999 36.9145C39.5581 37.2349 39.104 37.4111 38.621 37.4111H22.2485C20.3573 37.4111 18.4717 37.1744 16.6439 36.7074L10.9318 35.248C10.1359 35.044 9.31396 34.9408 8.48877 34.9408H0.833336C0.372723 34.9408 0 35.2961 0 35.7352C0 36.1744 0.372723 36.5297 0.833336 36.5297H8.48877C9.16748 36.5297 9.84457 36.615 10.4997 36.7826L16.2126 38.242C18.1812 38.7447 20.2116 39 22.2485 39H38.621C39.5439 39 40.413 38.6617 41.0685 38.0473Z" fill="#8C8C8C"/>
</svg>
